PathFileType	4	(X/Y/Z)	trial_0_0-299.trc
DataRate	CameraRate	NumFrames	NumMarkers	Units	OrigDataRate	OrigDataStartFrame	OrigNumFrames
60	60	9	21	m	60	261	299
Frame#	Time	RHip			RKnee			RAnkle			RBigToe			RSmallToe			RHeel			LHip			LKnee			LAnkle			LBigToe			LSmallToe			LHeel			Neck			Head			Nose			RShoulder			RElbow			RWrist			LShoulder			LElbow			LWrist		
		X1	Y1	Z1	X2	Y2	Z2	X3	Y3	Z3	X4	Y4	Z4	X5	Y5	Z5	X6	Y6	Z6	X7	Y7	Z7	X8	Y8	Z8	X9	Y9	Z9	X10	Y10	Z10	X11	Y11	Z11	X12	Y12	Z12	X13	Y13	Z13	X14	Y14	Z14	X15	Y15	Z15	X16	Y16	Z16	X17	Y17	Z17	X18	Y18	Z18	X19	Y19	Z19	X20	Y20	Z20	X21	Y21	Z21
262	4.366666666666666	1.3602354870596514	1.1426574014521658	0.45727802960501496	1.8302933690613128	1.0526873761668754	0.4435383612339705	2.1411359926682585	0.9197163226034692	0.35723011432331475	2.4439089670489706	1.1401493019525548	0.33720644163096897	2.414919743466088	1.0984049665769555	0.430755826340999	2.141330698900304	0.8867337127438623	0.34628153065253453	1.3643100329776963	1.210422915707964	0.18311029873780676	1.7883717854838321	1.089937941973749	0.17177355479775488	2.0885808503455516	0.8591349835555362	0.16510575790207194	2.474749424337619	1.2088084682423674	0.16613465448338596	2.364862350343426	1.1071689826584221	0.10290468062424256	2.0701685401804895	0.7231604546862276	0.17922721502921624	0.6938277681031818	1.2204238883218155	0.4126303217995889	0.35537583717351645	1.5220393761958748	0.503640484916999	0.6187378113299644	1.8023117382009013	0.49996467233246833	0.7776960349181903	1.1255043243532965	0.5875798720920529	1.1105842576667646	1.1186122031283061	0.5961044743008757	1.5357333569653746	1.6776304540433924	0.5082526022432535	0.735511635323405	1.2983551125849249	0.19787895367776567	1.0878022522072723	1.2738801396783064	0.08883642702011302	1.5200200375401085	1.6595804672369667	0.20387382554982636
263	4.383333333333334	1.3608122470151391	1.1418341196079442	0.45694896447578515	1.8284903149564697	1.0528287094773399	0.4436385091304763	2.1443888706714063	0.9237424248166993	0.3563188913528986	2.4445428539939345	1.142066202253063	0.3374869578232337	2.413859337332609	1.0970958594663212	0.43092544416880607	2.1416117916084114	0.8853671847258247	0.34536993252519654	1.365628537862805	1.2112371197468865	0.18066908159547151	1.7887275183467883	1.0833716975043726	0.17302477965786067	2.0888818727684404	0.8593405522212072	0.16496953399071856	2.4756954116685157	1.2113759811060438	0.16552246291645745	2.3617593265824945	1.1034726149222296	0.10242384946154301	2.0701483044813314	0.7220656172624138	0.17945031835974673	0.6907681038377776	1.20832197832105	0.40800496760992017	0.35437058173527974	1.4960152425188955	0.4951281964108162	0.6129171357526515	1.7790535480515417	0.4939177408961959	0.7741011287164209	1.1285552172606423	0.586022244927114	1.1047116878592194	1.1227334354680563	0.5931538767787676	1.5295326998926475	1.7104358928370362	0.49725035252700306	0.7350827882101927	1.292320337336209	0.196419796691683	1.0950492904855207	1.3010934168281274	0.0911878990779395	1.5155489562935236	1.6603216805829635	0.22318454987677433
264	4.4	1.3616626422683153	1.1406262585502969	0.45740181548703773	1.8267450964788674	1.0545642338647272	0.4433801049889572	2.1472936045097706	0.9266817466903493	0.35565157506537004	2.4460021317746	1.1455124545307376	0.33849740898672365	2.4135695532820884	1.0955544364902912	0.43128234324935394	2.1416091666768065	0.8829436071981489	0.34458390443671555	1.3674180682859882	1.2137445961473239	0.1787071569835835	1.788997043423696	1.0773195743731425	0.17428511746112546	2.0895552462183007	0.8605775539105288	0.164680609383949	2.475591108561687	1.2118983043707134	0.16548006244446378	2.358930044385888	1.0997189995465635	0.10216020196758493	2.070042236703355	0.7212768080825167	0.17937780004613976	0.6874270202967736	1.1960024055617107	0.40305723468504817	0.353168062031508	1.47056811876078	0.486638376823727	0.6063365601539907	1.7544207630651278	0.4871816613585995	0.7704352005092996	1.1327695775152749	0.5836430628069447	1.1005192537222215	1.1283024629146778	0.5905927224666337	1.5177779691984878	1.7223898175368244	0.4883912305716047	0.7352069299906099	1.2890766561456246	0.1950482755215971	1.1026392838872563	1.3301998391841519	0.09360493294203562	1.508171819157697	1.6579655794384707	0.2410195886431308
265	4.416666666666667	1.363045815503909	1.141322030530327	0.4581910765394802	1.8248139819951692	1.0574598261691008	0.4428782680896431	2.1489782871281475	0.927783742630125	0.35538190962308436	2.44796859621149	1.1495845580341377	0.33985170725018893	2.4138414650227498	1.0939455770920699	0.4317529540605325	2.1414176722669445	0.8800054214401755	0.3441791636571963	1.369488689816925	1.2177731217993584	0.1770130423208755	1.7884500390866878	1.0716336039179057	0.175641040549406	2.0906580020498122	0.8626771169355023	0.1642185209255438	2.474459263915258	1.2103677955382683	0.16591641670727267	2.3564752778480993	1.0954894748585366	0.10210716059312089	2.0701159949492967	0.7211021339624839	0.17927183023183751	0.6843475107378884	1.1859659896782069	0.39799150788034	0.35182387916155144	1.4498716053307668	0.478319049082378	0.5993598869327121	1.7280884682106339	0.479641779864821	0.7670876629832245	1.138171930054561	0.5804091461652834	1.0982468739066225	1.1362557156163717	0.5884381000618406	1.5020470772414294	1.7149428959252067	0.48114888535107625	0.7358862292376888	1.288892023743664	0.19365631598644822	1.1101146448007868	1.359268227975919	0.09526242395368452	1.4996498332886956	1.6591558011323058	0.25737960483888633
266	4.433333333333334	1.3648637657495488	1.1450428949617886	0.45864962117988417	1.8224676614249198	1.0605297874258448	0.4423790971892486	2.1492196753358574	0.9274929908268501	0.3554456567134569	2.4500220277739704	1.1534810791748185	0.34109770102089504	2.414084556700788	1.092369500104582	0.4322300343199733	2.1415758803333924	0.8776536820222123	0.3442650263134149	1.3716885769666054	1.222139506124564	0.17559539173084832	1.7868585693435923	1.0661247325934706	0.17717780985137205	2.091804909743436	0.8652161986693194	0.16358524623874904	2.4727729249097616	1.2081988508668269	0.1664211315779381	2.3537589884946737	1.0900616983628035	0.10204649483885145	2.070968708064679	0.7223875891302681	0.17918616737728127	0.6820349393902442	1.1801344488240528	0.3929653775681533	0.3502670836954065	1.4369747443068661	0.47028746555819934	0.5927076058015275	1.6998002384564934	0.47129609305204956	0.7642805998684654	1.1453048592638173	0.5766794899301856	1.0972848267836743	1.1462005978271117	0.5865941683986182	1.484614983103944	1.693668024658728	0.47420644378881405	0.7368558928799748	1.2908981947553182	0.19204255735277126	1.1165625999917117	1.3865860398501813	0.09580695423621409	1.4908592776272491	1.6673537796426792	0.2716420318236695
267	4.45	1.3664527711575634	1.150710397984275	0.4583536096336347	1.8195459813566899	1.063275920165231	0.44201720209626927	2.1483850087356435	0.9269411629473654	0.35564503599745334	2.4516505657608834	1.156586054541369	0.34196745165853143	2.413724923578035	1.0909155710641711	0.4326392353468854	2.1425855549066375	0.8767615873157495	0.3447710476465734	1.3735398468430509	1.2253222401664423	0.17465993552845988	1.7843053140242615	1.061196160178659	0.17876772970914884	2.092335529170754	0.8674396513662368	0.16291406226585867	2.4712019501402445	1.207194781759479	0.16656879858976498	2.349952497126867	1.082904991692514	0.10169982024656538	2.072861458188531	0.7252742466855899	0.17898453793159663	0.680717796703394	1.178848495943096	0.3880404918749871	0.34828189262637654	1.4321443004399192	0.46267338294452165	0.587163434945484	1.6711388013308968	0.462618622748177	0.7620318271425841	1.1543891344639423	0.5730062934147977	1.096783605565962	1.1567412725529957	0.5850132794681777	1.4671913878099367	1.6642598277497311	0.466473296751184	0.7377921061237369	1.2935255000744392	0.19005973134773033	1.1211036758382162	1.4104759324650713	0.09542769584225143	1.4817341177071954	1.6812780506610308	0.2826205648486793
268	4.466666666666667	1.3670380339881336	1.1560559557714538	0.45739427697257157	1.8162708269782208	1.0661991685592174	0.44170107347032694	2.147098537771133	0.9271285019455993	0.35577839260151456	2.4525277285257623	1.158732196629761	0.3424498314760192	2.412575723430364	1.0897134858706732	0.4329671115002334	2.144400584662859	0.877354314645424	0.34551496216577193	1.3743272871298686	1.2265143083909942	0.17432529372388256	1.7810675168694745	1.0577906920999016	0.1801005793088238	2.0918207010039676	0.8685828861216605	0.1624331488097341	2.470137508901277	1.2081060978115088	0.16625858915510705	2.3448112660846174	1.074270494840593	0.10095679741845516	2.0753262910790897	0.7287256776774095	0.17863535709666098	0.6803265965809012	1.1807617718979762	0.3831366561532833	0.34571419296858424	1.4334839188154016	0.4556240837579103	0.5831587378157841	1.6451367016401504	0.4543394724399312	0.7602045429373914	1.1641288301683392	0.5697815421953504	1.096254701068233	1.1662983882354605	0.5837070621408396	1.4507475748330465	1.6312620748378486	0.45784931177930643	0.7384998377988337	1.294998508375239	0.18769629760788342	1.1232082068081435	1.428435601810424	0.09451755548591627	1.4720863964555302	1.6961627388228326	0.28924097804521676
269	4.483333333333333	1.3664274165557488	1.159626498830987	0.45622180949075025	1.8135250516217631	1.0703716103384333	0.44120611428735296	2.1459465747700435	0.9284637187457287	0.3557106583498853	2.4526233096293204	1.160053066468361	0.34269767087237374	2.410898470811434	1.0888704669883316	0.43323159830140323	2.1464608811305848	0.8787320450990952	0.3462937238136691	1.3737388935304966	1.226174004020574	0.17443337152346672	1.7777627617010068	1.0566921826530797	0.1809035853668869	2.090488940148997	0.8683909064662687	0.16229747586462623	2.469487221719353	1.2101889830940178	0.16573994035656095	2.3390452101776273	1.0654770565573566	0.09999417563781907	2.0774437417230445	0.731296237532725	0.17834524499372795	0.6806179870531204	1.1839527022887497	0.37807202841711984	0.3426307158259024	1.4391786433120104	0.449226900059916	0.5806337122440812	1.6244598896065185	0.44687472578304754	0.7585906917805634	1.1717561577101216	0.5669827906736286	1.095655760648363	1.1737044902822542	0.5827005574633911	1.4360051811470669	1.5987936479636542	0.4491614391064278	0.7389114699014911	1.29407098772632	0.1850805156149517	1.1227780418012054	1.4377046993063396	0.0932903708130454	1.4621187064266512	1.7063556600581573	0.2912774005051526
270	4.5	1.365215741886944	1.1616357482126334	0.45522347375752037	1.812548351432377	1.0766918582088336	0.44033315313128135	2.1453906008254777	0.9308674328210469	0.35537285355064874	2.4519493757553956	1.1603547729866532	0.342906685971856	2.4091457906628895	1.0883048312942774	0.4334458463015127	2.1481921633738255	0.8801101140909514	0.34696984417276605	1.3723656794895016	1.2256104267731356	0.17463812109153984	1.775344672226089	1.0579225143924207	0.18108832335579317	2.0890618695861267	0.8672277431386375	0.16249284580139559	2.468877544761326	1.2119635400242421	0.16535788833223136	2.3338713073030553	1.058360872259931	0.09916887317123568	2.0784967749171637	0.7322200978278912	0.17835757736707009	0.6812438414582053	1.1871369994218663	0.3727237442378192	0.33924585188889966	1.4490134616659922	0.4434296042565964	0.5792080312072112	1.610369771243683	0.44011802790624915	0.7569834947972035	1.1745426576458877	0.5642021637882282	1.0951161540991088	1.1784912814763255	0.5820082497971342	1.4235445424078614	1.5701893031051926	0.4414274312066123	0.7389909693575958	1.2906096660918571	0.18241408221789965	1.1201461843123515	1.43717413353171	0.09170345112353609	1.4522439523476265	1.7073900438073957	0.28955861471700434
